PathFileType	4	(X/Y/Z)	C:/Users/opensim2020/Desktop/walking_exp_matlab/subject06_walking17_straight_01.trc	
DataRate	CameraRate	NumFrames	NumMarkers	Units	OrigDataRate	OrigDataStartFrame	OrigNumFrames	
100.00	100.00	8	45	mm	100.00	1133	305	
Frame#	Time	LFHD			RFHD			LBHD			RBHD			C7			T10			CLAV			STRN			RBAK			LSHO			LUPA			LELB			LFRM			LWRA			LWRB			LFIN			RSHO			RUPA			RELB			RFRM			RWRA			RWRB			RFIN			LASI			RASI			LPSI			RPSI			LTHI			LKNE			LTIB			LANK			LHEE			LTOE			RTHI			RKNE			RTIB			RANK			RHEE			RTOE			*39			*40			*41			*42			*43			*44			
		X1	Y1	Z1	X2	Y2	Z2	X3	Y3	Z3	X4	Y4	Z4	X5	Y5	Z5	X6	Y6	Z6	X7	Y7	Z7	X8	Y8	Z8	X9	Y9	Z9	X10	Y10	Z10	X11	Y11	Z11	X12	Y12	Z12	X13	Y13	Z13	X14	Y14	Z14	X15	Y15	Z15	X16	Y16	Z16	X17	Y17	Z17	X18	Y18	Z18	X19	Y19	Z19	X20	Y20	Z20	X21	Y21	Z21	X22	Y22	Z22	X23	Y23	Z23	X24	Y24	Z24	X25	Y25	Z25	X26	Y26	Z26	X27	Y27	Z27	X28	Y28	Z28	X29	Y29	Z29	X30	Y30	Z30	X31	Y31	Z31	X32	Y32	Z32	X33	Y33	Z33	X34	Y34	Z34	X35	Y35	Z35	X36	Y36	Z36	X37	Y37	Z37	X38	Y38	Z38	X39	Y39	Z39	X40	Y40	Z40	X41	Y41	Z41	X42	Y42	Z42	X43	Y43	Z43	X44	Y44	Z44	X45	Y45	Z45	

153	1.520	-1030.33435	-13.31173	1663.86084	-899.54968	-21.85657	1646.62561	-1042.75342	-144.23103	1606.75854	-914.15265	-151.48769	1594.69092	-985.30853	-148.33128	1449.74377	-980.24994	-191.89638	1121.81152	-988.48016	-40.30490	1369.03381	-996.69244	-6.20056	1191.99573	-902.46106	-222.77132	1280.44446	-1148.44531	-99.65897	1404.27002	-1224.82983	-127.28426	1205.58813	-1241.15601	-144.60109	1095.14905	-1271.08093	-127.63266	946.83057	-1236.11951	-68.25539	829.45538	-1272.30322	-130.31750	827.57593	-1279.10449	-90.17405	746.38861	-825.80060	-78.10109	1402.25977	-737.43036	-104.48096	1202.37354	-725.31750	-88.57482	1081.49011	-708.79150	-65.53849	963.30615	-742.71967	-0.78181	827.22015	-699.52057	-52.17022	826.17438	-698.70313	-10.94282	752.60046	-1088.85413	-16.53689	958.15125	-869.47528	-24.80283	958.24323	-1068.69153	-175.25113	988.50726	-899.19580	-175.41617	993.37653	-1161.23474	-34.04586	649.62689	-1131.81824	14.08536	498.16235	-1133.36536	47.55874	244.05920	-1098.42969	99.90174	77.65414	-1049.93176	67.89208	52.84187	-1098.01685	246.60257	81.18774	-831.89795	-128.63481	629.82361	-854.75299	-150.40640	505.64804	-869.96228	-239.63860	252.55664	-926.44427	-272.46448	70.47973	-973.48810	-312.66821	49.26721	-920.43921	-119.91586	30.23480	-976.79938	-117.98705	1697.01147															 
154	1.530	-1031.38391	-7.84308	1663.33862	-900.52423	-16.32621	1646.15210	-1043.74634	-138.66547	1605.96729	-915.10175	-145.86317	1594.00623	-986.18335	-142.39526	1449.03699	-981.03638	-186.04048	1121.16687	-989.24860	-34.41714	1368.41882	-997.30414	-0.36671	1191.34973	-903.41797	-216.95294	1279.89978	-1149.30530	-93.71789	1403.57874	-1225.15417	-122.49605	1205.07922	-1241.50159	-140.70705	1094.74475	-1271.28247	-125.40485	946.24536	-1236.35120	-66.50386	828.49109	-1272.27893	-129.02478	827.10406	-1278.79810	-89.32194	745.43646	-826.62000	-72.41307	1401.76404	-738.23975	-99.09200	1201.89673	-726.13129	-83.24594	1080.97742	-709.58521	-60.29639	962.80310	-743.42328	4.41729	826.65009	-700.08191	-47.12524	825.85583	-699.47284	-5.78192	752.02991	-1089.20740	-10.29326	957.62250	-869.97180	-19.18576	957.54309	-1069.50769	-169.06778	987.92676	-899.98181	-169.88676	992.69781	-1161.33154	-27.49675	649.40472	-1132.06311	20.06729	497.78613	-1134.06421	54.86695	243.86972	-1099.08569	107.67330	77.53409	-1050.79126	75.50704	52.43182	-1098.04456	254.37321	82.06017	-832.66290	-124.08079	629.17847	-855.36542	-146.22293	505.02618	-870.44263	-237.55945	252.64813	-926.96222	-271.99634	70.70530	-973.88843	-312.50604	49.83068	-920.52582	-119.75980	30.17331	-977.81683	-112.64220	1696.37573															 
155	1.540	-1032.43823	-2.16117	1662.97339	-901.56116	-10.80914	1645.73389	-1044.74731	-133.06004	1605.22205	-916.09473	-140.25438	1593.32043	-987.19952	-136.41132	1448.38708	-981.85608	-180.26302	1120.64575	-990.10065	-28.52847	1367.85315	-998.00488	5.64422	1190.74670	-904.39307	-211.02834	1279.34167	-1150.26721	-87.72852	1402.91736	-1225.71191	-117.58368	1204.54749	-1241.60254	-136.75240	1094.36450	-1271.25000	-122.48440	945.65302	-1236.63232	-64.90815	827.35486	-1272.15173	-127.30927	826.51477	-1278.58850	-88.42350	744.51465	-827.50232	-66.56855	1401.25476	-739.14038	-93.56957	1201.42908	-726.96777	-77.84704	1080.51172	-710.41833	-54.96333	962.29657	-744.23492	9.65120	826.11597	-701.16144	-41.80005	825.09998	-700.27496	-0.71340	751.44153	-1089.67383	-4.03011	957.09460	-870.47314	-13.58236	956.78918	-1070.35864	-162.93497	987.39856	-900.87170	-164.09587	991.98572	-1161.58228	-21.44395	649.08057	-1132.48926	25.93091	497.33810	-1134.73889	61.55502	243.38359	-1099.76074	114.76296	77.29583	-1051.70239	82.46085	51.94167	-1097.72253	261.36349	82.19672	-833.35242	-119.49890	628.60938	-855.93567	-141.66000	504.38797	-870.92395	-235.50639	252.80629	-927.21759	-271.71017	71.18765	-974.20593	-312.17148	50.45073	-920.53461	-119.65285	30.11032	-978.92114	-107.21306	1695.72314															 
156	1.550	-1033.52490	3.26391	1662.42773	-902.70398	-5.21471	1645.29456	-1045.86145	-127.36699	1604.45642	-917.23682	-134.50424	1592.65405	-988.24677	-130.53552	1447.83667	-982.75494	-174.01878	1119.94336	-991.01099	-22.52695	1367.30652	-998.69684	11.70461	1190.12036	-905.40082	-205.35513	1278.75403	-1151.27478	-81.56647	1402.20667	-1226.55347	-112.49516	1204.07300	-1242.02527	-132.33231	1093.92212	-1271.49292	-119.73799	945.02020	-1236.73096	-62.33102	826.52338	-1272.09802	-125.29769	825.93433	-1278.57715	-87.18446	743.53528	-828.43311	-60.68797	1400.76416	-740.04089	-87.99966	1200.96741	-727.88324	-72.35891	1080.00964	-711.26691	-49.66349	961.76917	-745.08649	14.81842	825.54333	-702.00458	-36.68817	824.60431	-701.13916	4.32790	750.87555	-1090.25415	2.37938	956.58521	-871.00006	-8.07644	956.00946	-1071.28015	-156.58627	986.83191	-901.86572	-158.24733	991.30927	-1161.68750	-16.25805	648.48218	-1133.00415	31.65943	496.76556	-1135.57507	68.06768	242.89450	-1100.35999	121.38668	76.84539	-1052.52161	88.82160	51.26843	-1097.33276	268.09140	82.21086	-834.07660	-114.76653	628.12628	-856.43353	-137.22850	503.82855	-871.37866	-233.41353	253.06618	-927.47076	-271.35635	71.71028	-974.46710	-311.85651	51.18843	-920.52332	-119.51946	30.11301	-980.04266	-101.70906	1695.06042															 
157	1.560	-1034.76733	8.87905	1661.90015	-903.86499	0.46683	1644.87585	-1047.02319	-121.60634	1603.73499	-918.36530	-128.77829	1591.96204	-989.31335	-124.55027	1447.20190	-983.73315	-167.95543	1119.52832	-991.97156	-16.45363	1366.71472	-999.43256	17.79673	1189.55237	-906.44025	-199.32170	1278.26184	-1152.30261	-75.39022	1401.48560	-1226.89746	-107.04514	1203.48926	-1242.23242	-127.98640	1093.55310	-1271.64282	-116.48299	944.42993	-1237.00635	-59.62848	825.65479	-1271.95911	-122.83028	825.31073	-1278.35193	-85.33617	742.63470	-829.43420	-54.71653	1400.29480	-741.02118	-82.39902	1200.48450	-728.81335	-66.89902	1079.54883	-712.24481	-44.35384	961.27020	-746.02209	20.06008	824.99896	-703.00409	-31.46439	824.12231	-702.07434	9.37868	750.30688	-1090.78992	8.89050	956.08917	-871.62372	-2.45572	955.33667	-1072.33362	-150.21596	986.28387	-902.99304	-152.41234	990.70709	-1163.15833	-9.28872	648.02911	-1133.61609	37.18463	496.01990	-1136.41223	74.21716	242.17827	-1101.05310	127.50399	76.15192	-1053.49927	94.54269	50.46562	-1096.74231	274.18121	81.82887	-834.71210	-109.96944	627.62451	-856.98505	-132.87749	503.43515	-871.68414	-231.21065	253.34221	-927.69476	-270.99219	72.31653	-974.75189	-311.57874	52.17239	-920.54077	-119.42432	30.10148	-981.25775	-96.08561	1694.39587															 
158	1.570	-1036.01074	14.73743	1661.38660	-905.02777	6.20614	1644.38892	-1048.25781	-115.69990	1602.99255	-919.63269	-122.91163	1591.32593	-990.48474	-118.42390	1446.57495	-984.78619	-161.96301	1118.82983	-992.99567	-10.27647	1366.17529	-1000.29614	24.05066	1189.01880	-907.47919	-193.10698	1277.83826	-1153.41333	-69.11951	1400.78760	-1227.56885	-101.58402	1202.91016	-1242.66492	-123.24721	1093.06702	-1271.86853	-112.92411	943.81451	-1237.34216	-56.45615	824.85443	-1272.06592	-120.30347	824.77173	-1278.10413	-83.74873	741.66266	-830.51453	-48.70653	1399.77246	-742.04785	-76.74623	1200.07642	-729.83136	-61.45747	1079.06848	-713.26880	-39.06458	960.79492	-746.98792	25.25324	824.45447	-704.01361	-26.32078	823.59167	-703.12238	14.50969	749.78418	-1091.40088	15.52588	955.55688	-872.38831	3.42034	954.76501	-1073.56042	-143.63857	985.73907	-904.09985	-146.70316	990.14478	-1164.10608	-3.21442	647.30792	-1134.24817	42.53587	495.19211	-1137.26514	79.76800	241.30298	-1101.73999	133.04810	75.30549	-1054.84167	100.18812	49.29863	-1096.02014	279.84122	81.06476	-835.41266	-105.08848	627.19073	-857.51483	-128.42212	503.13092	-872.08655	-229.04631	253.71228	-927.89648	-270.61316	73.04713	-974.97424	-311.16495	53.23771	-920.88397	-119.60075	30.08582	-982.57996	-90.40022	1693.77490															 
159	1.580	-1037.29626	20.52938	1660.74548	-906.38495	12.08075	1643.95935	-1049.54187	-109.76354	1602.28821	-920.91473	-117.01009	1590.69446	-991.66748	-112.39173	1445.96448	-985.94672	-155.54877	1118.13745	-994.05542	-4.09000	1365.62134	-1001.09619	30.34828	1188.45691	-908.63544	-187.15443	1277.23779	-1154.60950	-62.78500	1400.12537	-1228.38647	-95.79501	1202.32312	-1243.13806	-118.20420	1092.59314	-1272.09058	-109.10689	943.19519	-1238.12830	-52.86513	824.21869	-1272.14355	-117.37288	824.23218	-1278.00696	-81.44170	740.73645	-831.64917	-42.70053	1399.30396	-743.11938	-70.95992	1199.67212	-730.88550	-55.95783	1078.63171	-714.32312	-33.65369	960.31793	-747.97870	30.41665	823.87134	-705.07935	-21.05645	823.07410	-704.24658	19.66414	749.19238	-1092.12878	22.29808	954.95593	-873.11804	9.28428	954.23334	-1074.87842	-136.84911	985.13812	-905.13458	-141.37216	989.88086	-1165.00464	2.89666	646.48486	-1134.92566	47.76501	494.17178	-1138.14331	84.85161	240.28468	-1102.51221	138.01981	74.20231	-1055.85400	104.49518	48.21428	-1095.41614	284.92151	80.15823	-836.08777	-100.16586	626.84229	-857.99896	-123.71589	502.72260	-872.49652	-226.85551	254.21959	-927.95221	-270.30011	73.96521	-975.17419	-310.85382	54.38897	-920.92151	-119.45193	30.02256	-983.95013	-84.57221	1693.15796															 
160	1.590	-1038.68604	26.57354	1660.33740	-907.72583	17.99745	1643.55334	-1050.96729	-103.75515	1601.62158	-922.28967	-111.01479	1590.09827	-992.99219	-106.07819	1445.28687	-987.27930	-149.10999	1117.50598	-995.24286	2.22152	1365.01978	-1002.02570	36.81224	1187.91907	-909.91589	-180.99226	1276.70667	-1155.84045	-56.34813	1399.42200	-1229.14502	-90.07463	1201.62390	-1243.66528	-112.93240	1092.08557	-1272.43884	-104.89972	942.55377	-1237.62317	-50.35382	822.76666	-1272.28064	-114.09187	823.65619	-1277.97437	-78.90573	739.86987	-832.84863	-36.68834	1398.82532	-744.24939	-65.10409	1199.28943	-732.05328	-50.36785	1078.20471	-715.43457	-28.28433	959.84119	-749.09045	35.64552	823.34760	-706.21246	-15.93499	822.60028	-705.37561	24.64682	748.60718	-1092.84863	29.22867	954.34277	-873.85931	15.08789	953.58844	-1076.37195	-129.89445	984.56195	-906.97803	-134.37451	988.99347	-1165.90369	9.00130	645.56769	-1135.61084	52.93507	493.05588	-1139.07788	89.58663	239.12552	-1103.31287	142.36307	72.90574	-1056.96912	108.44811	46.72416	-1094.75708	289.04410	78.47297	-836.73297	-95.17846	626.57703	-858.42108	-119.09553	502.50537	-872.97693	-224.66864	254.78754	-928.32013	-269.90359	74.76377	-975.44391	-310.32941	55.62253	-920.92664	-119.38968	29.99342	-985.36395	-78.65591	1692.55103															 
